<?xml version="1.0" encoding="utf-8"?>
<!-- License: PD. Made by mono-company: https://github.com/mono-company/mono-icons -->
<svg width="800px" height="800px" viewBox="0 0 24 24" fill="none" xmlns="http://www.w3.org/2000/svg"><path d="M0 0h24v24H0z" style="fill:none"></path><circle cx="12" cy="8.5" r="1.5" style="fill:var(--NN900, #2E3137)"></circle><path d="M21.88 10.73 12.64 3a1 1 0 0 0-1.28 0l-9.24 7.7a1 1 0 0 0 .64 1.77H4v8a1 1 0 0 0 1 1h14a1 1 0 0 0 1-1v-8h1.24a1 1 0 0 0 .64-1.74Z" style="fill:none;stroke:var(--NN900, #2E3137);stroke-miterlimit:10;stroke-width:1.5px"></path><path d="M10.5 14.5h3a1 1 0 0 1 1 1v6h-5v-6a1 1 0 0 1 1-1Z" style="fill:none;stroke:var(--NN900, #2E3137);stroke-miterlimit:10;stroke-width:1.5px"></path></svg>