<svg width="800" height="800" viewBox="0 0 24 24" fill="none" xmlns="http://www.w3.org/2000/svg"><path d="M21.25 3.78a1 1 0 0 0-1-1h-3.1A6.44 6.44 0 0 0 12 5.07h0a6.44 6.44 0 0 0-5.15-2.32H3.78a1 1 0 0 0-1 1v16.47a1 1 0 0 0 1 1h10.28a7.19 7.19 0 0 0 7.19-7.19Z" style="fill:none;fill-rule:evenodd;stroke:var(--NN900, #2E3137);stroke-linecap:round;stroke-linejoin:round;stroke-width:1.5px"/><path d="m8 12 3 3 6-6" style="fill:none;stroke:var(--NN900, #2E3137);stroke-linecap:round;stroke-linejoin:round;stroke-width:1.5px"/><path d="M0 0h24v24H0z" style="fill:none"/></svg>