<svg width="800" height="800" viewBox="0 0 24 24" fill="none" xmlns="http://www.w3.org/2000/svg"><path d="M16.34 3.83a4.37 4.37 0 0 0-2.74 1A6.18 6.18 0 0 0 12 6.7a6.18 6.18 0 0 0-1.6-1.92 4.37 4.37 0 0 0-2.74-1 5 5 0 0 0-4.91 5.38c0 3.29 2.64 5.53 6.63 8.93L11.62 20a.56.56 0 0 0 .76 0l2.24-1.93c4-3.4 6.63-5.64 6.63-8.93a5 5 0 0 0-4.91-5.31Z" style="fill:var(--GN500, #00AA5B);stroke:var(--GN500, #00AA5B);stroke-miterlimit:10;stroke-width:.75px"/><path d="M0 0h24v24H0z" style="fill:none"/><path d="M18.48 10.46a2.76 2.76 0 0 0-.07-3.22 3.06 3.06 0 0 0-.36-.36m-1.65 6.24.2-.18" style="fill:none;stroke:var(--NN0, #FFFFFF);stroke-linecap:round;stroke-linejoin:round;stroke-width:1.5px"/><rect x="19" y="17" width="1.5" height="4" rx=".75" style="fill:var(--GN800, #145638)"/><rect x="19" y="17" width="1.5" height="4" rx=".75" transform="rotate(90 19.75 19)" style="fill:var(--GN800, #145638)"/><rect x="3" y="15" width="1.5" height="4" rx=".75" style="fill:var(--GN800, #145638)"/><rect x="3" y="15" width="1.5" height="4" rx=".75" transform="rotate(90 3.75 17)" style="fill:var(--GN800, #145638)"/></svg>